<mxfile host="app.diagrams.net" modified="2024-03-04T13:34:59.705Z" agent="Mozilla/5.0 (Windows NT 10.0; Win64; x64) AppleWebKit/537.36 (KHTML, like Gecko) Chrome/121.0.0.0 Safari/537.36" version="24.0.1" etag="4pVpB85ewyf09s_KDkT1" type="github">
  <diagram name="Pagina-1" id="AizCw9EqZKe5otJfnurP">
    <mxGraphModel>
      <root>
        <mxCell id="0" />
        <mxCell id="1" parent="0" />
      </root>
    </mxGraphModel>
  </diagram>
</mxfile>
